<svg width="200" height="60" viewBox="0 0 200 60" fill="none" xmlns="http://www.w3.org/2000/svg">
  <!-- Графический элемент - геометрическая сеть -->
  <g transform="translate(10, 10)">
    <!-- Основной шестиугольник -->
    <path d="M20 5 L35 12.5 L35 27.5 L20 35 L5 27.5 L5 12.5 Z" 
          fill="none" 
          stroke="url(#gradient1)" 
          stroke-width="3" 
          stroke-linejoin="round"/>
    
    <!-- Дополнительные шестиугольники для создания 3D эффекта -->
    <path d="M20 5 L35 12.5 L30 20 L15 12.5 Z" 
          fill="none" 
          stroke="url(#gradient1)" 
          stroke-width="3" 
          stroke-linejoin="round"/>
    
    <path d="M35 12.5 L35 27.5 L30 20 L30 15 Z" 
          fill="none" 
          stroke="url(#gradient1)" 
          stroke-width="3" 
          stroke-linejoin="round"/>
    
    <path d="M35 27.5 L20 35 L15 27.5 L30 20 Z" 
          fill="none" 
          stroke="url(#gradient1)" 
          stroke-width="3" 
          stroke-linejoin="round"/>
    
    <!-- Узлы соединения -->
    <circle cx="20" cy="5" r="3" fill="url(#gradient1)"/>
    <circle cx="35" cy="12.5" r="3" fill="url(#gradient1)"/>
    <circle cx="35" cy="27.5" r="3" fill="url(#gradient1)"/>
    <circle cx="20" cy="35" r="3" fill="url(#gradient1)"/>
    <circle cx="5" cy="27.5" r="3" fill="url(#gradient1)"/>
    <circle cx="5" cy="12.5" r="3" fill="url(#gradient1)"/>
    <circle cx="30" cy="20" r="3" fill="url(#gradient1)"/>
    <circle cx="15" cy="12.5" r="3" fill="url(#gradient1)"/>
  </g>
  
  <!-- Текстовый элемент -->
  <g transform="translate(70, 15)">
    <!-- Основной текст BMP -->
    <text x="0" y="25" 
          font-family="Arial, sans-serif" 
          font-size="24" 
          font-weight="bold" 
          fill="url(#gradient2)">
      BMP
    </text>
    
    <!-- Подзаголовок BOOK MY PLACE -->
    <text x="0" y="40" 
          font-family="Arial, sans-serif" 
          font-size="10" 
          font-weight="normal" 
          fill="url(#gradient2)">
      BOOK MY PLACE
    </text>
  </g>
  
  <!-- Градиенты -->
  <defs>
    <linearGradient id="gradient1" x1="0%" y1="0%" x2="100%" y2="100%">
      <stop offset="0%" style="stop-color:#8B5CF6;stop-opacity:1" />
      <stop offset="100%" style="stop-color:#3B82F6;stop-opacity:1" />
    </linearGradient>
    
    <linearGradient id="gradient2" x1="0%" y1="0%" x2="100%" y2="0%">
      <stop offset="0%" style="stop-color:#1E40AF;stop-opacity:1" />
      <stop offset="100%" style="stop-color:#7C3AED;stop-opacity:1" />
    </linearGradient>
  </defs>
</svg>
